<?xml version="1.0" encoding="utf-8"?>
<!-- Generator: Adobe Illustrator 22.0.1, SVG Export Plug-In . SVG Version: 6.00 Build 0)  -->
<svg version="1.1" id="Calque_2_1_" xmlns="http://www.w3.org/2000/svg" xmlns:xlink="http://www.w3.org/1999/xlink" x="0px"
	 y="0px" viewBox="0 0 48 48" style="enable-background:new 0 0 48 48;" xml:space="preserve">
<style type="text/css">
	.st0{fill:#FFFFFF;}
</style>
<g>
	<path class="st0" d="M23.8,0.8C11.1,0.8,0.7,11.2,0.7,24s10.4,23.1,23.1,23.1S47,36.8,47,24S36.6,0.8,23.8,0.8z M39.5,25.2
		c0,1.3-1,2.3-2.3,2.3H27v9.9c0,1.3-1,2.3-2.3,2.3h-2.2c-1.3,0-2.3-1-2.3-2.3v-9.9h-9.9c-1.3,0-2.3-1-2.3-2.3V23
		c0-1.3,1-2.3,2.3-2.3h9.9V10.6c0-1.3,1-2.3,2.3-2.3h2.2c1.3,0,2.3,1,2.3,2.3v10.2h10.2c1.3,0,2.3,1,2.3,2.3V25.2z"/>
</g>
</svg>
